# xmcd
#
# Track frame offsets:
#	150
#	9898
#	26075
#	43188
#	45675
#	64884
#	81407
#	100562
#	117442
#	133005
#	151597
#	169374
#	188646
#	209034
#	230566
#	232575
#	247782
#	268413
#
# Disc length: 3846 seconds
#
# Revision: 0
# Processed by: cddbd v1.4PL0 Copyright (c) Steve Scherf et al.
# Submitted via: dBpowerAMP V4.0
#
DISCID=ef0f0412
DTITLE=PUMP - The Arrival
DYEAR=1900
DGENRE=Dance
TTITLE0=The Arrival
TTITLE1=Throw 'Em Up
TTITLE2=I Like
TTITLE3=Top 8 at 8
TTITLE4=Changes
TTITLE5=Lies
TTITLE6=Only You
TTITLE7=Hit Me
TTITLE8=What Would You Say
TTITLE9=Summer Time
TTITLE10=Ride With A Player
TTITLE11=No Parking On The Dancefloor
TTITLE12=Situations
TTITLE13=Enough To Go Around
TTITLE14=Hater Talk
TTITLE15=Dougie Jam and Orlando
TTITLE16=So Long
TTITLE17=I Like (Remix)
EXTD=
EXTT0=
EXTT1=
EXTT2=
EXTT3=
EXTT4=
EXTT5=
EXTT6=
EXTT7=
EXTT8=
EXTT9=
EXTT10=
EXTT11=
EXTT12=
EXTT13=
EXTT14=
EXTT15=
EXTT16=
EXTT17=
PLAYORDER=
